<svg width="86" height="33" viewBox="0 0 86 33" fill="none" xmlns="http://www.w3.org/2000/svg">
<path d="M13.945 12.0873C9.96186 12.0873 6.93619 15.2223 6.93619 19.3565C6.93619 23.4907 9.96186 26.6984 13.945 26.6984C15.8264 26.6984 17.9672 25.7848 19.685 24.3082C20.0768 23.9708 20.6607 23.9915 21.0136 24.3704L23.6812 27.2382C24.0392 27.6222 24.0211 28.2269 23.6344 28.5851C20.8968 31.1154 17.1108 32.7141 13.5766 32.7141C5.79184 32.7115 0 27.0305 0 19.4292C0 11.8278 5.93975 6.36743 13.8335 6.36743C17.3625 6.36743 21.0499 7.80259 23.6267 10.159C24.0003 10.5016 24.0341 11.0803 23.7097 11.4696L21.0603 14.6462C20.7074 15.0666 20.0664 15.1133 19.6746 14.724C18.0372 13.0968 15.9068 12.0847 13.9425 12.0847" fill="#011E41"/>
<path d="M74.2438 15.4919V17.2645C74.2438 17.6475 74.5543 17.958 74.9372 17.958H83.1498C83.5328 17.958 83.8433 18.2686 83.8433 18.6516V22.6367C83.8433 23.0197 83.5328 23.3302 83.1498 23.3302H74.9372C74.5543 23.3302 74.2438 23.6408 74.2438 24.0238V29.735C74.2438 31.2178 73.0432 32.4159 71.5606 32.4159H68.1684C67.7855 32.4159 67.475 32.1054 67.475 31.7224V15.3444C67.475 9.86351 71.2268 6.36743 77.0382 6.36743C80.1121 6.36743 83.3387 6.92639 85.5562 7.81399C85.8822 7.94597 86.0581 8.30308 85.965 8.64208L84.7877 12.9326C84.679 13.3285 84.2521 13.5433 83.8691 13.3958C81.882 12.6247 79.4653 12.0709 77.6644 12.0709C75.6048 12.0709 74.2438 13.432 74.2438 15.4919Z" fill="#011E41"/>
<path d="M83.8706 30.1821C83.8706 31.3891 82.8986 32.4056 81.6547 32.4056C80.4108 32.4056 79.4562 31.4015 79.4562 30.1945C79.4562 28.9875 80.4207 27.9709 81.6671 27.9709C82.9135 27.9709 83.8706 28.9677 83.8706 30.1821ZM83.277 30.1821C83.277 29.2942 82.5722 28.5645 81.6671 28.5645C80.7619 28.5645 80.0497 29.309 80.0497 30.1945C80.0497 31.0799 80.7471 31.812 81.6547 31.812C82.5623 31.812 83.2795 31.0676 83.2795 30.1821H83.277ZM82.2408 30.4616L82.6588 31.1195H81.9861L81.7116 30.5729H81.4124V31.1195H80.8188V29.0988H81.7314C82.273 29.0988 82.5846 29.3585 82.5846 29.8086C82.5846 30.1153 82.4609 30.3379 82.2383 30.4616H82.2408ZM81.7314 30.1227C81.9144 30.1227 82.0182 30.0189 82.0182 29.8358C82.0182 29.6528 81.9144 29.5489 81.7314 29.5489H81.4124V30.1227H81.7314Z" fill="#011E41"/>
<path d="M56.8152 6.36743C53.2803 6.40145 50.4911 8.08144 48.8453 10.9547C48.6648 11.2687 48.2043 11.2661 48.0499 10.939C46.6788 8.07098 44.0336 6.37005 40.674 6.37005C37.8141 6.40145 35.441 7.52145 33.7664 9.44742C33.4917 9.76405 32.9736 9.57564 32.9736 9.15434C32.9736 8.6387 32.9736 8.72586 32.9736 8.72586C32.9736 7.54191 32.0138 6.58213 30.8299 6.58213H26.9219C26.5041 6.58213 26.1655 6.92081 26.1655 7.33859V31.9965C26.1655 32.2477 26.3669 32.4492 26.6181 32.4492H32.521C32.7695 32.4492 32.9736 32.2477 32.9736 31.9965V18.3864C32.9736 15.0762 35.0197 12.6582 37.9214 12.619C40.5615 12.619 42.236 14.5921 42.236 17.604V31.9965C42.236 32.2477 42.4375 32.4492 42.6887 32.4492H48.6648C48.916 32.4492 49.1174 32.2477 49.1174 31.9965V18.3864C49.1174 15.0762 51.1635 12.6582 54.1019 12.619C56.7419 12.619 58.3798 14.5921 58.3798 17.604V29.7356C58.3798 31.2324 59.5939 32.4466 61.0905 32.4466H64.8086C65.0572 32.4466 65.2612 32.2451 65.2612 31.9939V15.9659C65.2612 10.1984 61.8389 6.36743 56.8178 6.36743" fill="#011E41"/>
<path d="M17.7524 9.41929L12.413 3.88788C11.96 3.42026 11.9721 2.6716 12.4421 2.21852L12.6383 2.02954C14.5013 0.231767 17.4689 0.282648 19.2665 2.14583L23.2952 6.31802C25.0928 8.1812 25.0419 11.1492 23.179 12.947L22.6121 13.4946L19.5911 16.4141C17.7136 18.2264 14.7241 18.1731 12.9121 16.2978L12.631 16.0071C12.178 15.5395 12.1901 14.7908 12.6601 14.3377L17.7548 9.41929H17.7524Z" fill="#93D500"/>
<path d="M12.9122 16.2977L12.6312 16.007C12.1782 15.5369 12.1903 14.7907 12.6603 14.3376L17.755 9.41919L19.2667 10.9844C20.7856 12.5568 20.805 15.0257 19.3587 16.6224C17.4764 18.2191 14.6516 18.0979 12.9122 16.2953" fill="#55AC00"/>
<path d="M22.1708 5.15259L23.2707 6.29376C25.0828 8.17148 25.0295 11.1613 23.1544 12.9736L22.6117 13.4969L19.5908 16.4165C19.5157 16.4892 19.4382 16.5595 19.3582 16.6249C20.8045 15.0258 20.7851 12.5593 19.2661 10.9869C18.6758 10.3756 18.3448 10.0329 17.7545 9.42168L22.1708 5.15501V5.15259Z" fill="#7EC700"/>
</svg>
